<svg width="79" height="66" viewBox="0 0 79 66" fill="none" xmlns="http://www.w3.org/2000/svg">
<path d="M25.5828 6.70725L29.1246 5.76125C32.4459 4.87575 35.9943 6.3085 37.4163 9.108L40.2472 14.685C41.4783 17.1132 40.7936 19.9705 38.5553 21.747L32.3176 26.6915C32.7027 29.6505 33.8943 32.5627 35.889 35.4282C37.7833 38.2006 40.3241 40.6273 43.3611 42.5645L50.8529 40.4745C53.6903 39.6852 56.7845 40.5955 58.5225 42.7322L62.5811 47.7097C64.6055 50.1957 64.2401 53.6222 61.7286 55.7287L59.0393 57.9865C56.3599 60.2332 52.5317 61.05 48.9931 60.126C40.6323 57.948 32.9528 51.4827 25.9416 40.7302C18.9205 29.9612 16.4418 20.8202 18.509 13.3182C19.378 10.1612 22.0673 7.645 25.5828 6.70725V6.70725Z" fill="black"/>
</svg>
